<?xml version="1.0" encoding="UTF-8" standalone="no"?>
<svg
   id="svg8"
   version="1.1"
   viewBox="0 0 211.66666 105.83334"
   height="400"
   width="800"
   sodipodi:docname="ustc-hackergame-2021-writeup.svg.2021_10_30_16_40_51.0.svg"
   inkscape:version="1.1 (c68e22c387, 2021-05-23)"
   inkscape:export-filename="C:\root\works\code\git\pikanote\assets\img\cover\ustc-hackergame-2021-writeup.png"
   inkscape:export-xdpi="96"
   inkscape:export-ydpi="96"
   xmlns:inkscape="http://www.inkscape.org/namespaces/inkscape"
   xmlns:sodipodi="http://sodipodi.sourceforge.net/DTD/sodipodi-0.dtd"
   xmlns="http://www.w3.org/2000/svg"
   xmlns:svg="http://www.w3.org/2000/svg"
   xmlns:rdf="http://www.w3.org/1999/02/22-rdf-syntax-ns#"
   xmlns:cc="http://creativecommons.org/ns#"
   xmlns:dc="http://purl.org/dc/elements/1.1/">
  <sodipodi:namedview
     id="namedview10"
     pagecolor="#ffffff"
     bordercolor="#666666"
     borderopacity="1.0"
     inkscape:pageshadow="2"
     inkscape:pageopacity="0.0"
     inkscape:pagecheckerboard="0"
     showgrid="true"
     inkscape:snap-bbox="true"
     inkscape:snap-nodes="false"
     inkscape:bbox-paths="true"
     inkscape:bbox-nodes="true"
     inkscape:snap-bbox-edge-midpoints="true"
     inkscape:snap-bbox-midpoints="true"
     inkscape:zoom="1.2975"
     inkscape:cx="416.95568"
     inkscape:cy="151.05973"
     inkscape:window-width="1920"
     inkscape:window-height="1017"
     inkscape:window-x="1358"
     inkscape:window-y="-7"
     inkscape:window-maximized="1"
     inkscape:current-layer="svg8">
    <inkscape:grid
       type="xygrid"
       id="grid827"
       empspacing="4" />
  </sodipodi:namedview>
  <defs
     id="defs2" />
  <metadata
     id="metadata5">
    <rdf:RDF>
      <cc:Work
         rdf:about="">
        <dc:format>image/svg+xml</dc:format>
        <dc:type
           rdf:resource="http://purl.org/dc/dcmitype/StillImage" />
      </cc:Work>
    </rdf:RDF>
  </metadata>
  <rect
     y="6.4941405e-06"
     x="-1.6530355e-05"
     height="105.83335"
     width="211.66669"
     id="rect4704"
     style="fill:#000000;fill-opacity:1;fill-rule:evenodd;stroke:none;stroke-width:0.53;stroke-linecap:butt;stroke-linejoin:miter;stroke-miterlimit:4;stroke-dasharray:none;stroke-dashoffset:0;stroke-opacity:1" />
  <path
     fill="currentColor"
     d="m 81.491677,52.916672 c 0,1.16901 -0.94767,2.11667 -2.11667,2.11667 -1.16901,0 -2.11667,-0.94766 -2.11667,-2.11667 0,-1.16901 0.94766,-2.11667 2.11667,-2.11667 1.169,0 2.11667,0.94766 2.11667,2.11667 z m -2.3615,1.12076 1.57043,-1.57043 c 0.0533,-0.0533 0.0533,-0.13979 0,-0.19312 l -0.19313,-0.19312 c -0.0533,-0.0533 -0.13979,-0.0533 -0.19312,0 l -1.28075,1.28074 -0.59795,-0.59796 c -0.0533,-0.0533 -0.13979,-0.0533 -0.19313,0 l -0.19312,0.19312 c -0.0533,0.0533 -0.0533,0.1398 0,0.19313 l 0.88764,0.88763 c 0.0533,0.0533 0.13979,0.0533 0.19313,1e-5 z"
     id="path836"
     style="fill:#ff7f00;fill-opacity:1;stroke-width:0.00853495" />
  <path
     fill="currentColor"
     d="m 137.58332,50.800002 c -1.16927,0 -2.11665,0.94738 -2.11665,2.11667 0,1.16928 0.94738,2.11667 2.11665,2.11667 1.16929,0 2.11667,-0.94739 2.11667,-2.11667 0,-1.16929 -0.94738,-2.11667 -2.11667,-2.11667 z m 0,3.82366 c -0.9431,0 -1.70697,-0.76388 -1.70697,-1.70699 0,-0.94311 0.76387,-1.70699 1.70697,-1.70699 0.94312,0 1.70699,0.76388 1.70699,1.70699 0,0.94311 -0.76387,1.70699 -1.70699,1.70699 z"
     id="path1015"
     style="fill:#ff7f00;fill-opacity:1;stroke-width:0.00853495" />
  <path
     fill="currentColor"
     d="m 89.958354,50.800002 c -1.16901,0 -2.11667,0.94766 -2.11667,2.11667 0,1.16901 0.94766,2.11667 2.11667,2.11667 1.169,0 2.11666,-0.94766 2.11666,-2.11667 0,-1.16901 -0.94766,-2.11667 -2.11666,-2.11667 z m 0.68279,2.11667 c 0,0.3765 -0.3063,0.6828 -0.68279,0.6828 -0.3765,0 -0.6828,-0.3063 -0.6828,-0.6828 0,-0.37649 0.3063,-0.6828 0.6828,-0.6828 0.37649,0 0.68279,0.30631 0.68279,0.6828 z"
     id="path1114"
     style="fill:#ff7f00;fill-opacity:1;stroke-width:0.0085349" />
  <path
     fill="currentColor"
     d="m 44.450006,52.916672 c 0,1.16901 -0.947661,2.11667 -2.116666,2.11667 -1.169006,0 -2.116667,-0.94766 -2.116667,-2.11667 0,-1.16901 0.947661,-2.11667 2.116667,-2.11667 1.169005,0 2.116666,0.94766 2.116666,2.11667 z m -2.361499,1.12076 1.570429,-1.57043 c 0.05333,-0.0533 0.05333,-0.13979 0,-0.19312 l -0.19312,-0.19312 c -0.05333,-0.0533 -0.139794,-0.0533 -0.193129,0 l -1.280745,1.28074 -0.59795,-0.59796 c -0.05332,-0.0533 -0.139794,-0.0533 -0.193129,0 l -0.19312,0.19312 c -0.05332,0.0533 -0.05332,0.1398 0,0.19313 l 0.887635,0.88763 c 0.05334,0.0533 0.139794,0.0533 0.193129,1e-5 z"
     id="path836-6"
     style="fill:#ff7f00;fill-opacity:1;stroke-width:0.00853495" />
  <path
     fill="currentColor"
     d="m 28.575007,52.916672 c 0,1.16901 -0.947661,2.11667 -2.116666,2.11667 -1.169006,0 -2.116667,-0.94766 -2.116667,-2.11667 0,-1.16901 0.947661,-2.11667 2.116667,-2.11667 1.169005,0 2.116666,0.94766 2.116666,2.11667 z m -2.361499,1.12076 1.570429,-1.57043 c 0.05333,-0.0533 0.05333,-0.13979 0,-0.19312 l -0.19312,-0.19312 c -0.05332,-0.0533 -0.139794,-0.0533 -0.193129,0 l -1.280745,1.28074 -0.59795,-0.59796 c -0.05332,-0.0533 -0.139794,-0.0533 -0.193129,0 l -0.19312,0.19312 c -0.05332,0.0533 -0.05332,0.1398 0,0.19313 l 0.887635,0.88763 c 0.05334,0.0533 0.139794,0.0533 0.193129,1e-5 z"
     id="path836-2"
     style="fill:#ff7f00;fill-opacity:1;stroke-width:0.00853495" />
  <path
     fill="currentColor"
     d="m 39.15834,52.916672 c 0,1.16901 -0.947661,2.11667 -2.116667,2.11667 -1.169006,0 -2.116666,-0.94766 -2.116666,-2.11667 0,-1.16901 0.94766,-2.11667 2.116666,-2.11667 1.169006,0 2.116667,0.94766 2.116667,2.11667 z m -2.3615,1.12076 1.57043,-1.57043 c 0.05332,-0.0533 0.05332,-0.13979 0,-0.19312 l -0.193121,-0.19312 c -0.05332,-0.0533 -0.139793,-0.0533 -0.193128,0 l -1.280746,1.28074 -0.597949,-0.59796 c -0.05333,-0.0533 -0.139794,-0.0533 -0.193129,0 l -0.19312,0.19312 c -0.05333,0.0533 -0.05333,0.1398 0,0.19313 l 0.887634,0.88763 c 0.05334,0.0533 0.139794,0.0533 0.193129,1e-5 z"
     id="path836-28"
     style="fill:#ff7f00;fill-opacity:1;stroke-width:0.00853495" />
  <path
     fill="currentColor"
     d="m 33.866673,52.916672 c 0,1.169 -0.947661,2.11667 -2.116666,2.11667 -1.169006,0 -2.116667,-0.94767 -2.116667,-2.11667 0,-1.16901 0.947661,-2.11667 2.116667,-2.11667 1.169005,0 2.116666,0.94766 2.116666,2.11667 z m -2.361499,1.12075 1.570429,-1.57042 c 0.05332,-0.0533 0.05332,-0.1398 0,-0.19312 l -0.19312,-0.19312 c -0.05333,-0.0533 -0.139794,-0.0533 -0.193129,0 l -1.280745,1.28073 -0.59795,-0.59795 c -0.05332,-0.0533 -0.139794,-0.0533 -0.193129,0 l -0.19312,0.19312 c -0.05332,0.0533 -0.05332,0.13979 0,0.19312 l 0.887635,0.88763 c 0.05333,0.0533 0.139794,0.0533 0.193129,10e-6 z"
     id="path836-3"
     style="fill:#ff7f00;fill-opacity:1;stroke-width:0.00853495" />
  <path
     fill="currentColor"
     d="m 65.616667,52.916672 c 0,1.16901 -0.94766,2.11667 -2.11667,2.11667 -1.169,0 -2.11666,-0.94766 -2.11666,-2.11667 0,-1.16901 0.94766,-2.11667 2.11666,-2.11667 1.16901,0 2.11667,0.94766 2.11667,2.11667 z m -2.3615,1.12076 1.57043,-1.57043 c 0.0533,-0.0533 0.0533,-0.13979 0,-0.19312 l -0.19312,-0.19312 c -0.0533,-0.0533 -0.13979,-0.0533 -0.19313,0 l -1.28074,1.28074 -0.59795,-0.59796 c -0.0533,-0.0533 -0.1398,-0.0533 -0.19313,0 l -0.19312,0.19312 c -0.0533,0.0533 -0.0533,0.1398 0,0.19313 l 0.88763,0.88763 c 0.0533,0.0533 0.1398,0.0533 0.19313,1e-5 z"
     id="path836-1"
     style="fill:#ff7f00;fill-opacity:1;stroke-width:0.00853495" />
  <path
     fill="currentColor"
     d="m 60.325004,52.916672 c 0,1.16901 -0.94766,2.11667 -2.11666,2.11667 -1.16901,0 -2.11667,-0.94766 -2.11667,-2.11667 0,-1.16901 0.94766,-2.11667 2.11667,-2.11667 1.169,0 2.11666,0.94766 2.11666,2.11667 z m -2.3615,1.12076 1.57043,-1.57043 c 0.0533,-0.0533 0.0533,-0.13979 0,-0.19312 l -0.19312,-0.19312 c -0.0533,-0.0533 -0.13979,-0.0533 -0.19313,0 l -1.28074,1.28074 -0.59795,-0.59796 c -0.0533,-0.0533 -0.1398,-0.0533 -0.19313,0 l -0.19312,0.19312 c -0.0533,0.0533 -0.0533,0.1398 0,0.19313 l 0.88763,0.88763 c 0.0533,0.0533 0.1398,0.0533 0.19313,1e-5 z"
     id="path836-4"
     style="fill:#ff7f00;fill-opacity:1;stroke-width:0.00853495" />
  <path
     fill="currentColor"
     d="m 49.741672,52.916672 c 0,1.16901 -0.947661,2.11667 -2.116666,2.11667 -1.169006,0 -2.116667,-0.94766 -2.116667,-2.11667 0,-1.16901 0.947661,-2.11667 2.116667,-2.11667 1.169005,0 2.116666,0.94766 2.116666,2.11667 z m -2.361499,1.12076 1.570429,-1.57043 c 0.05333,-0.0533 0.05333,-0.13979 0,-0.19312 l -0.19312,-0.19312 c -0.05333,-0.0533 -0.139794,-0.0533 -0.193129,0 l -1.280745,1.28074 -0.59795,-0.59796 c -0.05332,-0.0533 -0.139794,-0.0533 -0.193129,0 l -0.19312,0.19312 c -0.05332,0.0533 -0.05332,0.1398 0,0.19313 l 0.887635,0.88763 c 0.05334,0.0533 0.139794,0.0533 0.193129,1e-5 z"
     id="path836-68"
     style="fill:#ff7f00;fill-opacity:1;stroke-width:0.00853495" />
  <path
     fill="currentColor"
     d="m 123.82501,52.916672 c 0,1.16901 -0.94766,2.11667 -2.11666,2.11667 -1.16901,0 -2.11667,-0.94766 -2.11667,-2.11667 0,-1.16901 0.94766,-2.11667 2.11667,-2.11667 1.169,0 2.11666,0.94766 2.11666,2.11667 z m -2.3615,1.12076 1.57043,-1.57043 c 0.0533,-0.0533 0.0533,-0.13979 0,-0.19312 l -0.19312,-0.19312 c -0.0533,-0.0533 -0.13979,-0.0533 -0.19313,0 l -1.28074,1.28074 -0.59795,-0.59796 c -0.0533,-0.0533 -0.1398,-0.0533 -0.19313,0 l -0.19312,0.19312 c -0.0533,0.0533 -0.0533,0.1398 0,0.19313 l 0.88763,0.88763 c 0.0533,0.0533 0.1398,0.0533 0.19313,1e-5 z"
     id="path836-6-3"
     style="fill:#ff7f00;fill-opacity:1;stroke-width:0.00853495" />
  <path
     fill="currentColor"
     d="m 76.200004,52.916672 c 0,1.16901 -0.94766,2.11667 -2.11666,2.11667 -1.16901,0 -2.11667,-0.94766 -2.11667,-2.11667 0,-1.16901 0.94766,-2.11667 2.11667,-2.11667 1.169,0 2.11666,0.94766 2.11666,2.11667 z m -2.3615,1.12076 1.57043,-1.57043 c 0.0533,-0.0533 0.0533,-0.13979 0,-0.19312 l -0.19312,-0.19312 c -0.0533,-0.0533 -0.1398,-0.0533 -0.19313,0 l -1.28074,1.28074 -0.59795,-0.59796 c -0.0533,-0.0533 -0.13979,-0.0533 -0.19313,0 l -0.19312,0.19312 c -0.0533,0.0533 -0.0533,0.1398 0,0.19313 l 0.88764,0.88763 c 0.0533,0.0533 0.13979,0.0533 0.19312,1e-5 z"
     id="path836-2-9"
     style="fill:#ff7f00;fill-opacity:1;stroke-width:0.00853495" />
  <path
     fill="currentColor"
     d="m 86.783351,52.916672 c 0,1.16901 -0.94767,2.11667 -2.11667,2.11667 -1.16901,0 -2.11667,-0.94766 -2.11667,-2.11667 0,-1.16901 0.94766,-2.11667 2.11667,-2.11667 1.169,0 2.11667,0.94766 2.11667,2.11667 z m -2.3615,1.12076 1.57043,-1.57043 c 0.0533,-0.0533 0.0533,-0.13979 0,-0.19312 l -0.19312,-0.19312 c -0.0533,-0.0533 -0.1398,-0.0533 -0.19313,0 l -1.28075,1.28074 -0.59795,-0.59796 c -0.0533,-0.0533 -0.13979,-0.0533 -0.19313,0 l -0.19312,0.19312 c -0.0533,0.0533 -0.0533,0.1398 0,0.19313 l 0.88764,0.88763 c 0.0533,0.0533 0.13979,0.0533 0.19313,1e-5 z"
     id="path836-28-8"
     style="fill:#ff7f00;fill-opacity:1;stroke-width:0.00853495" />
  <path
     fill="currentColor"
     d="m 118.53334,52.916672 c 0,1.169 -0.94766,2.11667 -2.11667,2.11667 -1.16901,0 -2.11667,-0.94767 -2.11667,-2.11667 0,-1.16901 0.94766,-2.11667 2.11667,-2.11667 1.16901,0 2.11667,0.94766 2.11667,2.11667 z m -2.3615,1.12075 1.57042,-1.57042 c 0.0533,-0.0533 0.0533,-0.1398 0,-0.19312 l -0.19311,-0.19312 c -0.0533,-0.0533 -0.13981,-0.0533 -0.19313,0 l -1.28076,1.28073 -0.59795,-0.59795 c -0.0533,-0.0533 -0.13979,-0.0533 -0.19311,0 l -0.19312,0.19312 c -0.0533,0.0533 -0.0533,0.13979 0,0.19312 l 0.88764,0.88763 c 0.0533,0.0533 0.13979,0.0533 0.19312,10e-6 z"
     id="path836-3-9"
     style="fill:#ff7f00;fill-opacity:1;stroke-width:0.00853495" />
  <path
     fill="currentColor"
     d="m 100.54168,50.800002 c -1.169289,0 -2.116669,0.94738 -2.116669,2.11667 0,1.16928 0.94738,2.11667 2.116669,2.11667 1.16929,0 2.11667,-0.94739 2.11667,-2.11667 0,-1.16929 -0.94738,-2.11667 -2.11667,-2.11667 z m 0,3.82366 c -0.943109,0 -1.706989,-0.76388 -1.706989,-1.70699 0,-0.94311 0.76388,-1.70699 1.706989,-1.70699 0.94311,0 1.70699,0.76388 1.70699,1.70699 0,0.94311 -0.76388,1.70699 -1.70699,1.70699 z"
     id="path1015-9"
     style="fill:#ff7f00;fill-opacity:1;stroke-width:0.00853495" />
  <path
     fill="currentColor"
     d="m 127,50.800002 c -1.16927,0 -2.11666,0.94738 -2.11666,2.11667 0,1.16928 0.94739,2.11667 2.11666,2.11667 1.16928,0 2.11666,-0.94739 2.11666,-2.11667 0,-1.16929 -0.94738,-2.11667 -2.11666,-2.11667 z m 0,3.82366 c -0.9431,0 -1.70697,-0.76388 -1.70697,-1.70699 0,-0.94311 0.76387,-1.70699 1.70697,-1.70699 0.94311,0 1.70698,0.76388 1.70698,1.70699 0,0.94311 -0.76387,1.70699 -1.70698,1.70699 z"
     id="path1015-1"
     style="fill:#ff7f00;fill-opacity:1;stroke-width:0.00853495" />
  <path
     fill="currentColor"
     d="m 132.29166,50.800002 c -1.169,0 -2.11667,0.94767 -2.11667,2.11667 0,1.16902 0.94767,2.11667 2.11667,2.11667 1.16901,0 2.11667,-0.94765 2.11667,-2.11667 0,-1.169 -0.94766,-2.11667 -2.11667,-2.11667 z m 0.6828,2.11667 c 0,0.3765 -0.3063,0.6828 -0.6828,0.6828 -0.37649,0 -0.68279,-0.3063 -0.68279,-0.6828 0,-0.37649 0.3063,-0.68279 0.68279,-0.68279 0.3765,0 0.6828,0.3063 0.6828,0.68279 z"
     id="path1114-4"
     style="fill:#ff7f00;fill-opacity:1;stroke-width:0.0085349" />
  <path
     fill="currentColor"
     d="m 70.908341,52.916672 c 0,1.169 -0.94766,2.11667 -2.11667,2.11667 -1.169,0 -2.11667,-0.94767 -2.11667,-2.11667 0,-1.16901 0.94767,-2.11667 2.11667,-2.11667 1.16901,0 2.11667,0.94766 2.11667,2.11667 z m -2.3615,1.12075 1.57043,-1.57042 c 0.0533,-0.0533 0.0533,-0.13979 0,-0.19312 l -0.19312,-0.19312 c -0.0533,-0.0533 -0.1398,-0.0533 -0.19313,0 l -1.28075,1.28074 -0.59795,-0.59796 c -0.0533,-0.0533 -0.13979,-0.0533 -0.19313,0 l -0.19312,0.19312 c -0.0533,0.0533 -0.0533,0.1398 0,0.19312 l 0.88764,0.88763 c 0.0533,0.0533 0.13979,0.0533 0.19313,10e-6 z"
     id="path836-28-2"
     style="fill:#ff7f00;fill-opacity:1;stroke-width:0.00853495" />
  <path
     fill="currentColor"
     d="m 113.24167,52.916677 c 0,1.16901 -0.94766,2.11666 -2.11667,2.11666 -1.169,0 -2.11665,-0.94765 -2.11665,-2.11666 0,-1.169 0.94766,-2.11667 2.11665,-2.11667 1.16901,0 2.11667,0.94767 2.11667,2.11667 z m -2.3615,1.12076 1.57043,-1.57043 c 0.0533,-0.0533 0.0533,-0.1398 0,-0.19311 l -0.19312,-0.19312 c -0.0533,-0.0533 -0.13979,-0.0533 -0.19313,0 l -1.28074,1.28074 -0.59795,-0.59796 c -0.0533,-0.0533 -0.1398,-0.0533 -0.19313,0 l -0.19312,0.19312 c -0.0533,0.0533 -0.0533,0.1398 0,0.19313 l 0.88763,0.88763 c 0.0533,0.0533 0.13981,0.0533 0.19313,0 z"
     id="path836-4-1"
     style="fill:#ff7f00;fill-opacity:1;stroke-width:0.00853495" />
  <path
     fill="currentColor"
     d="m 105.83335,50.800002 c -1.16929,0 -2.11667,0.94738 -2.11667,2.11667 0,1.16928 0.94738,2.11667 2.11667,2.11667 1.16929,0 2.11667,-0.94739 2.11667,-2.11667 0,-1.16929 -0.94738,-2.11667 -2.11667,-2.11667 z m 0,3.82366 c -0.94312,0 -1.70699,-0.76388 -1.70699,-1.70699 0,-0.94311 0.76387,-1.70699 1.70699,-1.70699 0.94312,0 1.70699,0.76388 1.70699,1.70699 0,0.94311 -0.76387,1.70699 -1.70699,1.70699 z"
     id="path1015-1-0"
     style="fill:#ff7f00;fill-opacity:1;stroke-width:0.00853495" />
  <path
     fill="currentColor"
     d="m 153.45833,50.800002 c -1.16929,0 -2.11667,0.94738 -2.11667,2.11667 0,1.16928 0.94738,2.11667 2.11667,2.11667 1.16929,0 2.11667,-0.94739 2.11667,-2.11667 0,-1.16929 -0.94738,-2.11667 -2.11667,-2.11667 z m 0,3.82366 c -0.94311,0 -1.70699,-0.76388 -1.70699,-1.70699 0,-0.94311 0.76388,-1.70699 1.70699,-1.70699 0.94311,0 1.70699,0.76388 1.70699,1.70699 0,0.94311 -0.76388,1.70699 -1.70699,1.70699 z"
     id="path1015-9-0"
     style="fill:#ff7f00;fill-opacity:1;stroke-width:0.00853495" />
  <path
     fill="currentColor"
     d="m 166.15831,52.916677 c 0,1.16901 -0.94766,2.11666 -2.11667,2.11666 -1.169,0 -2.11665,-0.94765 -2.11665,-2.11666 0,-1.169 0.94767,-2.11667 2.11665,-2.11667 1.16901,0 2.11667,0.94767 2.11667,2.11667 z m -2.3615,1.12076 1.57043,-1.57043 c 0.0533,-0.0533 0.0533,-0.1398 0,-0.19311 l -0.19312,-0.19312 c -0.0533,-0.0533 -0.13979,-0.0533 -0.19313,0 l -1.28074,1.28074 -0.59795,-0.59796 c -0.0533,-0.0533 -0.1398,-0.0533 -0.19313,0 l -0.19312,0.19312 c -0.0533,0.0533 -0.0533,0.1398 0,0.19313 l 0.88763,0.88763 c 0.0533,0.0533 0.13981,0.0533 0.19313,0 z"
     id="path836-4-1-2"
     style="fill:#ff7f00;fill-opacity:1;stroke-width:0.00853495" />
  <path
     fill="currentColor"
     d="m 158.75,50.800002 c -1.16929,0 -2.11667,0.94738 -2.11667,2.11667 0,1.16928 0.94738,2.11667 2.11667,2.11667 1.16928,0 2.11666,-0.94739 2.11666,-2.11667 0,-1.16929 -0.94738,-2.11667 -2.11666,-2.11667 z m 0,3.82366 c -0.94312,0 -1.70699,-0.76388 -1.70699,-1.70699 0,-0.94311 0.76387,-1.70699 1.70699,-1.70699 0.94311,0 1.70698,0.76388 1.70698,1.70699 0,0.94311 -0.76387,1.70699 -1.70698,1.70699 z"
     id="path1015-1-0-6"
     style="fill:#ff7f00;fill-opacity:1;stroke-width:0.00853495" />
  <path
     fill="currentColor"
     d="m 169.33332,50.800002 c -1.16929,0 -2.11667,0.94738 -2.11667,2.11667 0,1.16928 0.94738,2.11667 2.11667,2.11667 1.16929,0 2.11667,-0.94739 2.11667,-2.11667 0,-1.16929 -0.94738,-2.11667 -2.11667,-2.11667 z m 0,3.82366 c -0.94311,0 -1.70699,-0.76388 -1.70699,-1.70699 0,-0.94311 0.76388,-1.70699 1.70699,-1.70699 0.94311,0 1.70699,0.76388 1.70699,1.70699 0,0.94311 -0.76388,1.70699 -1.70699,1.70699 z"
     id="path1015-9-2"
     style="fill:#ff7f00;fill-opacity:1;stroke-width:0.00853495" />
  <path
     fill="currentColor"
     d="m 176.74164,52.916677 c 0,1.16901 -0.94766,2.11666 -2.11667,2.11666 -1.169,0 -2.11665,-0.94765 -2.11665,-2.11666 0,-1.169 0.94766,-2.11667 2.11665,-2.11667 1.16901,0 2.11667,0.94767 2.11667,2.11667 z m -2.3615,1.12076 1.57043,-1.57043 c 0.0533,-0.0533 0.0533,-0.1398 0,-0.19311 l -0.19312,-0.19312 c -0.0533,-0.0533 -0.13979,-0.0533 -0.19313,0 l -1.28074,1.28074 -0.59795,-0.59796 c -0.0533,-0.0533 -0.1398,-0.0533 -0.19313,0 l -0.19312,0.19312 c -0.0533,0.0533 -0.0533,0.1398 0,0.19313 l 0.88763,0.88763 c 0.0533,0.0533 0.13981,0.0533 0.19313,0 z"
     id="path836-4-1-20"
     style="fill:#ff7f00;fill-opacity:1;stroke-width:0.00853495" />
  <path
     fill="currentColor"
     d="m 179.91664,50.800002 c -1.16929,0 -2.11667,0.94738 -2.11667,2.11667 0,1.16928 0.94738,2.11667 2.11667,2.11667 1.16928,0 2.11666,-0.94739 2.11666,-2.11667 0,-1.16929 -0.94738,-2.11667 -2.11666,-2.11667 z m 0,3.82366 c -0.94312,0 -1.70699,-0.76388 -1.70699,-1.70699 0,-0.94311 0.76387,-1.70699 1.70699,-1.70699 0.94311,0 1.70698,0.76388 1.70698,1.70699 0,0.94311 -0.76387,1.70699 -1.70698,1.70699 z"
     id="path1015-1-0-7"
     style="fill:#ff7f00;fill-opacity:1;stroke-width:0.00853495" />
  <path
     fill="currentColor"
     d="m 150.28332,52.916672 c 0,1.16901 -0.94766,2.11667 -2.11667,2.11667 -1.169,0 -2.11667,-0.94766 -2.11667,-2.11667 0,-1.16901 0.94767,-2.11667 2.11667,-2.11667 1.16901,0 2.11667,0.94766 2.11667,2.11667 z m -2.3615,1.12076 1.57043,-1.57043 c 0.0533,-0.0533 0.0533,-0.13979 0,-0.19312 l -0.19312,-0.19312 c -0.0533,-0.0533 -0.1398,-0.0533 -0.19313,0 l -1.28075,1.28074 -0.59795,-0.59796 c -0.0533,-0.0533 -0.13979,-0.0533 -0.19313,0 l -0.19312,0.19312 c -0.0533,0.0533 -0.0533,0.1398 0,0.19313 l 0.88764,0.88763 c 0.0533,0.0533 0.13979,0.0533 0.19313,1e-5 z"
     id="path836-39"
     style="fill:#ff7f00;fill-opacity:1;stroke-width:0.00853495" />
  <path
     fill="currentColor"
     d="m 55.033341,52.916672 c 0,1.16901 -0.94766,2.11667 -2.116669,2.11667 -1.169006,0 -2.116666,-0.94766 -2.116666,-2.11667 0,-1.16901 0.94766,-2.11667 2.116666,-2.11667 1.169009,0 2.116669,0.94766 2.116669,2.11667 z m -2.361502,1.12076 1.570432,-1.57043 c 0.0533,-0.0533 0.0533,-0.13979 0,-0.19312 l -0.193123,-0.19312 c -0.05332,-0.0533 -0.139793,-0.0533 -0.193128,0 l -1.280746,1.28074 -0.597949,-0.59796 c -0.05332,-0.0533 -0.139794,-0.0533 -0.193129,0 l -0.19312,0.19312 c -0.05333,0.0533 -0.05333,0.1398 0,0.19313 l 0.887634,0.88763 c 0.05333,0.0533 0.139794,0.0533 0.193129,1e-5 z"
     id="path836-6-2"
     style="fill:#ff7f00;fill-opacity:1;stroke-width:0.00853495" />
  <path
     fill="currentColor"
     d="m 144.99165,52.916672 c 0,1.16901 -0.94766,2.11667 -2.11666,2.11667 -1.16901,0 -2.11667,-0.94766 -2.11667,-2.11667 0,-1.16901 0.94766,-2.11667 2.11667,-2.11667 1.169,0 2.11666,0.94766 2.11666,2.11667 z m -2.3615,1.12076 1.57043,-1.57043 c 0.0533,-0.0533 0.0533,-0.13979 0,-0.19312 l -0.19312,-0.19312 c -0.0533,-0.0533 -0.13979,-0.0533 -0.19312,0 l -1.28075,1.28074 -0.59795,-0.59796 c -0.0533,-0.0533 -0.13979,-0.0533 -0.19313,0 l -0.19312,0.19312 c -0.0533,0.0533 -0.0533,0.1398 0,0.19313 l 0.88764,0.88763 c 0.0533,0.0533 0.13979,0.0533 0.19312,1e-5 z"
     id="path836-4-4"
     style="fill:#ff7f00;fill-opacity:1;stroke-width:0.00853495" />
  <path
     fill="currentColor"
     d="m 95.250008,50.800002 c -1.16928,0 -2.11666,0.94738 -2.11666,2.11667 0,1.16928 0.94738,2.11667 2.11666,2.11667 1.16929,0 2.11667,-0.94739 2.11667,-2.11667 0,-1.16929 -0.94738,-2.11667 -2.11667,-2.11667 z m 0,3.82366 c -0.94311,0 -1.70699,-0.76388 -1.70699,-1.70699 0,-0.94311 0.76388,-1.70699 1.70699,-1.70699 0.94312,0 1.70699,0.76388 1.70699,1.70699 0,0.94311 -0.76387,1.70699 -1.70699,1.70699 z"
     id="path1015-1-7"
     style="fill:#ff7f00;fill-opacity:1;stroke-width:0.00853495" />
  <path
     fill="currentColor"
     d="m 185.20831,50.800002 c -1.169,0 -2.11667,0.94767 -2.11667,2.11667 0,1.16902 0.94767,2.11667 2.11667,2.11667 1.16901,0 2.11667,-0.94765 2.11667,-2.11667 0,-1.169 -0.94766,-2.11667 -2.11667,-2.11667 z m 0.6828,2.11667 c 0,0.3765 -0.3063,0.6828 -0.6828,0.6828 -0.37649,0 -0.68279,-0.3063 -0.68279,-0.6828 0,-0.37649 0.3063,-0.68279 0.68279,-0.68279 0.3765,0 0.6828,0.3063 0.6828,0.68279 z"
     id="path1114-4-3"
     style="fill:#ff7f00;fill-opacity:1;stroke-width:0.0085349" />
</svg>
