<?xml version="1.0" encoding="UTF-8" standalone="no"?>
<svg
   id="svg8"
   version="1.1"
   viewBox="0 0 211.66666 105.83334"
   height="400"
   width="800"
   sodipodi:docname="ustc-hackergame-2024-writeup.svg"
   inkscape:version="1.3 (0e150ed6c4, 2023-07-21)"
   inkscape:export-filename="ustc-hackergame-2024-writeup.png"
   inkscape:export-xdpi="96"
   inkscape:export-ydpi="96"
   xmlns:inkscape="http://www.inkscape.org/namespaces/inkscape"
   xmlns:sodipodi="http://sodipodi.sourceforge.net/DTD/sodipodi-0.dtd"
   xmlns="http://www.w3.org/2000/svg"
   xmlns:svg="http://www.w3.org/2000/svg"
   xmlns:rdf="http://www.w3.org/1999/02/22-rdf-syntax-ns#"
   xmlns:cc="http://creativecommons.org/ns#"
   xmlns:dc="http://purl.org/dc/elements/1.1/">
  <sodipodi:namedview
     id="namedview10"
     pagecolor="#ffffff"
     bordercolor="#666666"
     borderopacity="1.0"
     inkscape:pageshadow="2"
     inkscape:pageopacity="0.0"
     inkscape:pagecheckerboard="0"
     showgrid="true"
     inkscape:snap-bbox="true"
     inkscape:snap-nodes="false"
     inkscape:bbox-paths="true"
     inkscape:bbox-nodes="true"
     inkscape:snap-bbox-edge-midpoints="true"
     inkscape:snap-bbox-midpoints="true"
     inkscape:zoom="0.91747105"
     inkscape:cx="501.92319"
     inkscape:cy="152.04839"
     inkscape:window-width="1920"
     inkscape:window-height="991"
     inkscape:window-x="2381"
     inkscape:window-y="2691"
     inkscape:window-maximized="1"
     inkscape:current-layer="svg8"
     inkscape:showpageshadow="2"
     inkscape:deskcolor="#d1d1d1">
    <inkscape:grid
       type="xygrid"
       id="grid827"
       empspacing="4"
       originx="0"
       originy="0"
       spacingy="1"
       spacingx="1"
       units="px"
       visible="true" />
  </sodipodi:namedview>
  <defs
     id="defs2" />
  <metadata
     id="metadata5">
    <rdf:RDF>
      <cc:Work
         rdf:about="">
        <dc:format>image/svg+xml</dc:format>
        <dc:type
           rdf:resource="http://purl.org/dc/dcmitype/StillImage" />
      </cc:Work>
    </rdf:RDF>
  </metadata>
  <rect
     y="6.4941405e-06"
     x="-1.6530355e-05"
     height="105.83335"
     width="211.66669"
     id="rect4704"
     style="fill:#000000;fill-opacity:1;fill-rule:evenodd;stroke:none;stroke-width:0.53;stroke-linecap:butt;stroke-linejoin:miter;stroke-miterlimit:4;stroke-dasharray:none;stroke-dashoffset:0;stroke-opacity:1" />
  <path
     fill="currentColor"
     d="m 124.35416,50.799997 c -1.169,0 -2.11667,0.94767 -2.11667,2.11667 0,1.16902 0.94767,2.11667 2.11667,2.11667 1.16901,0 2.11667,-0.94765 2.11667,-2.11667 0,-1.169 -0.94766,-2.11667 -2.11667,-2.11667 z m 0.6828,2.11667 c 0,0.3765 -0.3063,0.6828 -0.6828,0.6828 -0.37649,0 -0.68279,-0.3063 -0.68279,-0.6828 0,-0.37649 0.3063,-0.68279 0.68279,-0.68279 0.3765,0 0.6828,0.3063 0.6828,0.68279 z"
     id="path1114-4-3-9"
     style="fill:#ff7f00;fill-opacity:1;stroke-width:0.0085349" />
  <path
     fill="currentColor"
     d="m 73.554168,52.916667 c 0,1.16901 -0.94767,2.11667 -2.11667,2.11667 -1.16901,0 -2.11667,-0.94766 -2.11667,-2.11667 0,-1.16901 0.94766,-2.11667 2.11667,-2.11667 1.169,0 2.11667,0.94766 2.11667,2.11667 z m -2.3615,1.12076 1.57043,-1.57043 c 0.0533,-0.0533 0.0533,-0.13979 0,-0.19312 l -0.19313,-0.19312 c -0.0533,-0.0533 -0.13979,-0.0533 -0.19312,0 l -1.28075,1.28074 -0.59795,-0.59796 c -0.0533,-0.0533 -0.13979,-0.0533 -0.19313,0 l -0.19312,0.19312 c -0.0533,0.0533 -0.0533,0.1398 0,0.19313 l 0.88764,0.88763 c 0.0533,0.0533 0.13979,0.0533 0.19313,1e-5 z"
     id="path836"
     style="fill:#ff7f00;fill-opacity:1;stroke-width:0.00853495" />
  <path
     fill="currentColor"
     d="m 87.312503,50.799997 c -1.169013,0 -2.116673,0.94766 -2.116673,2.11667 0,1.16901 0.94766,2.11667 2.116673,2.11667 1.169,0 2.11666,-0.94766 2.11666,-2.11667 0,-1.16901 -0.94766,-2.11667 -2.11666,-2.11667 z m 0.68279,2.11667 c 0,0.3765 -0.3063,0.6828 -0.68279,0.6828 -0.3765,0 -0.682803,-0.3063 -0.682803,-0.6828 0,-0.37649 0.306303,-0.6828 0.682803,-0.6828 0.37649,0 0.68279,0.30631 0.68279,0.6828 z"
     id="path1114"
     style="fill:#ff7f00;fill-opacity:1;stroke-width:0.0085349" />
  <path
     fill="currentColor"
     d="m 68.262499,52.916667 c 0,1.16901 -0.94766,2.11667 -2.116666,2.11667 -1.169006,0 -2.116667,-0.94766 -2.116667,-2.11667 0,-1.16901 0.947661,-2.11667 2.116667,-2.11667 1.169005,0 2.116666,0.94766 2.116666,2.11667 z m -2.361499,1.12076 1.570429,-1.57043 c 0.05333,-0.0533 0.05333,-0.13979 0,-0.19312 l -0.19312,-0.19312 c -0.05333,-0.0533 -0.139794,-0.0533 -0.193129,0 l -1.280745,1.28074 -0.59795,-0.59796 c -0.05332,-0.0533 -0.139794,-0.0533 -0.193129,0 l -0.19312,0.19312 c -0.05332,0.0533 -0.05332,0.1398 0,0.19313 l 0.887635,0.88763 c 0.05334,0.0533 0.139795,0.0533 0.193129,1e-5 z"
     id="path836-6"
     style="fill:#ff7f00;fill-opacity:1;stroke-width:0.00853495" />
  <path
     fill="currentColor"
     d="m 20.637509,52.916667 c 0,1.16901 -0.947661,2.11667 -2.116666,2.11667 -1.169006,0 -2.116667,-0.94766 -2.116667,-2.11667 0,-1.16901 0.947661,-2.11667 2.116667,-2.11667 1.169005,0 2.116666,0.94766 2.116666,2.11667 z m -2.361499,1.12076 1.570429,-1.57043 c 0.05333,-0.0533 0.05333,-0.13979 0,-0.19312 l -0.19312,-0.19312 c -0.05332,-0.0533 -0.139794,-0.0533 -0.193129,0 l -1.280745,1.28074 -0.59795,-0.59796 c -0.05332,-0.0533 -0.139794,-0.0533 -0.193129,0 l -0.19312,0.19312 c -0.05332,0.0533 -0.05332,0.1398 0,0.19313 l 0.887635,0.88763 c 0.05334,0.0533 0.139794,0.0533 0.193129,1e-5 z"
     id="path836-2"
     style="fill:#ff7f00;fill-opacity:1;stroke-width:0.00853495" />
  <path
     fill="currentColor"
     d="m 31.22084,52.916667 c 0,1.16901 -0.947661,2.11667 -2.116667,2.11667 -1.169006,0 -2.116666,-0.94766 -2.116666,-2.11667 0,-1.16901 0.94766,-2.11667 2.116666,-2.11667 1.169006,0 2.116667,0.94766 2.116667,2.11667 z m -2.3615,1.12076 1.57043,-1.57043 c 0.05332,-0.0533 0.05332,-0.13979 0,-0.19312 l -0.193121,-0.19312 c -0.05332,-0.0533 -0.139793,-0.0533 -0.193128,0 l -1.280746,1.28074 -0.597949,-0.59796 c -0.05333,-0.0533 -0.139794,-0.0533 -0.193129,0 l -0.19312,0.19312 c -0.05333,0.0533 -0.05333,0.1398 0,0.19313 l 0.887634,0.88763 c 0.05334,0.0533 0.139794,0.0533 0.193129,1e-5 z"
     id="path836-28"
     style="fill:#ff7f00;fill-opacity:1;stroke-width:0.00853495" />
  <path
     fill="currentColor"
     d="m 25.929175,52.916667 c 0,1.169 -0.947661,2.11667 -2.116666,2.11667 -1.169006,0 -2.116667,-0.94767 -2.116667,-2.11667 0,-1.16901 0.947661,-2.11667 2.116667,-2.11667 1.169005,0 2.116666,0.94766 2.116666,2.11667 z m -2.361499,1.12075 1.570429,-1.57042 c 0.05332,-0.0533 0.05332,-0.1398 0,-0.19312 l -0.19312,-0.19312 c -0.05333,-0.0533 -0.139794,-0.0533 -0.193129,0 l -1.280745,1.28073 -0.59795,-0.59795 c -0.05332,-0.0533 -0.139794,-0.0533 -0.193129,0 l -0.19312,0.19312 c -0.05332,0.0533 -0.05332,0.13979 0,0.19312 l 0.887635,0.88763 c 0.05333,0.0533 0.139794,0.0533 0.193129,10e-6 z"
     id="path836-3"
     style="fill:#ff7f00;fill-opacity:1;stroke-width:0.00853495" />
  <path
     fill="currentColor"
     d="m 57.679167,52.916667 c 0,1.16901 -0.94766,2.11667 -2.11667,2.11667 -1.169,0 -2.11666,-0.94766 -2.11666,-2.11667 0,-1.16901 0.94766,-2.11667 2.11666,-2.11667 1.16901,0 2.11667,0.94766 2.11667,2.11667 z m -2.3615,1.12076 1.57043,-1.57043 c 0.0533,-0.0533 0.0533,-0.13979 0,-0.19312 l -0.19312,-0.19312 c -0.0533,-0.0533 -0.13979,-0.0533 -0.19313,0 l -1.28074,1.28074 -0.59795,-0.59796 c -0.0533,-0.0533 -0.1398,-0.0533 -0.19313,0 l -0.19312,0.19312 c -0.0533,0.0533 -0.0533,0.1398 0,0.19313 l 0.88763,0.88763 c 0.0533,0.0533 0.1398,0.0533 0.19313,1e-5 z"
     id="path836-1"
     style="fill:#ff7f00;fill-opacity:1;stroke-width:0.00853495" />
  <path
     fill="currentColor"
     d="m 52.387501,52.916667 c 0,1.16901 -0.94766,2.11667 -2.11666,2.11667 -1.16901,0 -2.11667,-0.94766 -2.11667,-2.11667 0,-1.16901 0.94766,-2.11667 2.11667,-2.11667 1.169,0 2.11666,0.94766 2.11666,2.11667 z m -2.3615,1.12076 1.57043,-1.57043 c 0.0533,-0.0533 0.0533,-0.13979 0,-0.19312 l -0.19312,-0.19312 c -0.0533,-0.0533 -0.13979,-0.0533 -0.19313,0 l -1.28074,1.28074 -0.59795,-0.59796 c -0.0533,-0.0533 -0.1398,-0.0533 -0.19313,0 l -0.19312,0.19312 c -0.0533,0.0533 -0.0533,0.1398 0,0.19313 l 0.88763,0.88763 c 0.0533,0.0533 0.1398,0.0533 0.19313,1e-5 z"
     id="path836-4"
     style="fill:#ff7f00;fill-opacity:1;stroke-width:0.00853495" />
  <path
     fill="currentColor"
     d="m 41.804171,52.916667 c 0,1.16901 -0.947661,2.11667 -2.116666,2.11667 -1.169006,0 -2.116667,-0.94766 -2.116667,-2.11667 0,-1.16901 0.947661,-2.11667 2.116667,-2.11667 1.169005,0 2.116666,0.94766 2.116666,2.11667 z m -2.361499,1.12076 1.570429,-1.57043 c 0.05333,-0.0533 0.05333,-0.13979 0,-0.19312 l -0.19312,-0.19312 c -0.05333,-0.0533 -0.139794,-0.0533 -0.193129,0 l -1.280745,1.28074 -0.59795,-0.59796 c -0.05332,-0.0533 -0.139794,-0.0533 -0.193129,0 l -0.19312,0.19312 c -0.05332,0.0533 -0.05332,0.1398 0,0.19313 l 0.887635,0.88763 c 0.05334,0.0533 0.139794,0.0533 0.193129,1e-5 z"
     id="path836-68"
     style="fill:#ff7f00;fill-opacity:1;stroke-width:0.00853495" />
  <path
     fill="currentColor"
     d="m 147.63748,52.916667 c 0,1.16901 -0.94766,2.11667 -2.11666,2.11667 -1.16901,0 -2.11666,-0.94766 -2.11666,-2.11667 0,-1.16901 0.94765,-2.11667 2.11666,-2.11667 1.169,0 2.11666,0.94766 2.11666,2.11667 z m -2.3615,1.12076 1.57043,-1.57043 c 0.0533,-0.0533 0.0533,-0.13979 0,-0.19312 l -0.19312,-0.19312 c -0.0533,-0.0533 -0.13979,-0.0533 -0.19312,0 l -1.28074,1.28074 -0.59795,-0.59796 c -0.0533,-0.0533 -0.1398,-0.0533 -0.19313,0 l -0.19312,0.19312 c -0.0533,0.0533 -0.0533,0.1398 0,0.19313 l 0.88763,0.88763 c 0.0533,0.0533 0.1398,0.0533 0.19312,1e-5 z"
     id="path836-6-3"
     style="fill:#ff7f00;fill-opacity:1;stroke-width:0.00853495" />
  <path
     fill="currentColor"
     d="m 94.720823,52.916667 c 0,1.16901 -0.94766,2.11667 -2.11666,2.11667 -1.16901,0 -2.11667,-0.94766 -2.11667,-2.11667 0,-1.16901 0.94766,-2.11667 2.11667,-2.11667 1.169,0 2.11666,0.94766 2.11666,2.11667 z m -2.3615,1.12076 1.57043,-1.57043 c 0.0533,-0.0533 0.0533,-0.13979 0,-0.19312 l -0.19312,-0.19312 c -0.0533,-0.0533 -0.1398,-0.0533 -0.19313,0 l -1.28073,1.28074 -0.59795,-0.59796 c -0.0533,-0.0533 -0.13979,-0.0533 -0.19313,0 l -0.19312,0.19312 c -0.0533,0.0533 -0.0533,0.1398 0,0.19313 l 0.88764,0.88763 c 0.0533,0.0533 0.13979,0.0533 0.19311,1e-5 z"
     id="path836-2-9"
     style="fill:#ff7f00;fill-opacity:1;stroke-width:0.00853495" />
  <path
     fill="currentColor"
     d="m 78.845834,52.916667 c 0,1.16901 -0.94767,2.11667 -2.11667,2.11667 -1.16901,0 -2.11667,-0.94766 -2.11667,-2.11667 0,-1.16901 0.94766,-2.11667 2.11667,-2.11667 1.169,0 2.11667,0.94766 2.11667,2.11667 z m -2.3615,1.12076 1.57043,-1.57043 c 0.0533,-0.0533 0.0533,-0.13979 0,-0.19312 l -0.19312,-0.19312 c -0.0533,-0.0533 -0.1398,-0.0533 -0.19313,0 l -1.28075,1.28074 -0.59795,-0.59796 c -0.0533,-0.0533 -0.13979,-0.0533 -0.19313,0 l -0.19312,0.19312 c -0.0533,0.0533 -0.0533,0.1398 0,0.19313 l 0.88764,0.88763 c 0.0533,0.0533 0.13979,0.0533 0.19313,1e-5 z"
     id="path836-28-8"
     style="fill:#ff7f00;fill-opacity:1;stroke-width:0.00853495" />
  <path
     fill="currentColor"
     d="m 82.02083,50.799997 c -1.169,0 -2.11667,0.94767 -2.11667,2.11667 0,1.16902 0.94767,2.11667 2.11667,2.11667 1.16901,0 2.11667,-0.94765 2.11667,-2.11667 0,-1.169 -0.94766,-2.11667 -2.11667,-2.11667 z m 0.6828,2.11667 c 0,0.3765 -0.3063,0.6828 -0.6828,0.6828 -0.37649,0 -0.68279,-0.3063 -0.68279,-0.6828 0,-0.37649 0.3063,-0.68279 0.68279,-0.68279 0.3765,0 0.6828,0.3063 0.6828,0.68279 z"
     id="path1114-4"
     style="fill:#ff7f00;fill-opacity:1;stroke-width:0.0085349" />
  <path
     fill="currentColor"
     d="m 62.970837,52.916667 c 0,1.169 -0.94766,2.11667 -2.11667,2.11667 -1.169,0 -2.11667,-0.94767 -2.11667,-2.11667 0,-1.16901 0.94767,-2.11667 2.11667,-2.11667 1.16901,0 2.11667,0.94766 2.11667,2.11667 z m -2.3615,1.12075 1.57043,-1.57042 c 0.0533,-0.0533 0.0533,-0.13979 0,-0.19312 l -0.19312,-0.19312 c -0.0533,-0.0533 -0.1398,-0.0533 -0.19313,0 l -1.28075,1.28074 -0.59795,-0.59796 c -0.0533,-0.0533 -0.13979,-0.0533 -0.19313,0 l -0.19312,0.19312 c -0.0533,0.0533 -0.0533,0.1398 0,0.19312 l 0.88764,0.88763 c 0.0533,0.0533 0.13979,0.0533 0.19313,10e-6 z"
     id="path836-28-2"
     style="fill:#ff7f00;fill-opacity:1;stroke-width:0.00853495" />
  <path
     fill="currentColor"
     d="m 36.512498,52.916672 c 0,1.16901 -0.94766,2.11666 -2.11667,2.11666 -1.168998,0 -2.116648,-0.94765 -2.116648,-2.11666 0,-1.169 0.94766,-2.11667 2.116648,-2.11667 1.16901,0 2.11667,0.94767 2.11667,2.11667 z m -2.3615,1.12076 1.57043,-1.57043 c 0.0533,-0.0533 0.0533,-0.1398 0,-0.19311 l -0.19312,-0.19312 c -0.0533,-0.0533 -0.13979,-0.0533 -0.19313,0 l -1.280739,1.28074 -0.597949,-0.59796 c -0.0533,-0.0533 -0.139799,-0.0533 -0.193129,0 l -0.19312,0.19312 c -0.0533,0.0533 -0.0533,0.1398 0,0.19313 l 0.887628,0.88763 c 0.0533,0.0533 0.13981,0.0533 0.193129,0 z"
     id="path836-4-1"
     style="fill:#ff7f00;fill-opacity:1;stroke-width:0.00853495" />
  <path
     fill="currentColor"
     d="m 156.10415,50.799997 c -1.16929,0 -2.11667,0.94738 -2.11667,2.11667 0,1.16928 0.94738,2.11667 2.11667,2.11667 1.16929,0 2.11667,-0.94739 2.11667,-2.11667 0,-1.16929 -0.94738,-2.11667 -2.11667,-2.11667 z m 0,3.82366 c -0.94312,0 -1.70699,-0.76388 -1.70699,-1.70699 0,-0.94311 0.76387,-1.70699 1.70699,-1.70699 0.94312,0 1.70699,0.76388 1.70699,1.70699 0,0.94311 -0.76387,1.70699 -1.70699,1.70699 z"
     id="path1015-1-0"
     style="fill:#ff7f00;fill-opacity:1;stroke-width:0.00853495" />
  <path
     fill="currentColor"
     d="m 171.97916,50.799997 c -1.16929,0 -2.11667,0.94738 -2.11667,2.11667 0,1.16928 0.94738,2.11667 2.11667,2.11667 1.16929,0 2.11667,-0.94739 2.11667,-2.11667 0,-1.16929 -0.94738,-2.11667 -2.11667,-2.11667 z m 0,3.82366 c -0.94312,0 -1.70699,-0.76388 -1.70699,-1.70699 0,-0.94311 0.76387,-1.70699 1.70699,-1.70699 0.94312,0 1.70699,0.76388 1.70699,1.70699 0,0.94311 -0.76387,1.70699 -1.70699,1.70699 z"
     id="path1015-1-0-39"
     style="fill:#ff7f00;fill-opacity:1;stroke-width:0.00853495" />
  <path
     fill="currentColor"
     d="m 187.85415,50.799997 c -1.16929,0 -2.11667,0.947381 -2.11667,2.11667 0,1.16928 0.94738,2.11667 2.11667,2.11667 1.16929,0 2.11667,-0.94739 2.11667,-2.11667 0,-1.169289 -0.94738,-2.11667 -2.11667,-2.11667 z m 0,3.82366 c -0.94312,0 -1.70699,-0.76388 -1.70699,-1.70699 0,-0.943109 0.76387,-1.706989 1.70699,-1.706989 0.94312,0 1.70699,0.76388 1.70699,1.706989 0,0.94311 -0.76387,1.70699 -1.70699,1.70699 z"
     id="path1015-1-0-9"
     style="fill:#ff7f00;fill-opacity:1;stroke-width:0.00853495" />
  <path
     fill="currentColor"
     d="m 134.93749,50.799997 c -1.16929,0 -2.11667,0.94738 -2.11667,2.11667 0,1.16928 0.94738,2.11667 2.11667,2.11667 1.16929,0 2.11667,-0.94739 2.11667,-2.11667 0,-1.16929 -0.94738,-2.11667 -2.11667,-2.11667 z m 0,3.82366 c -0.94312,0 -1.70699,-0.76388 -1.70699,-1.70699 0,-0.94311 0.76387,-1.70699 1.70699,-1.70699 0.94312,0 1.70699,0.76388 1.70699,1.70699 0,0.94311 -0.76387,1.70699 -1.70699,1.70699 z"
     id="path1015-1-0-8"
     style="fill:#ff7f00;fill-opacity:1;stroke-width:0.00853495" />
  <path
     fill="currentColor"
     d="m 129.64582,50.799997 c -1.16929,0 -2.11667,0.94738 -2.11667,2.11667 0,1.16928 0.94738,2.11667 2.11667,2.11667 1.16929,0 2.11667,-0.94739 2.11667,-2.11667 0,-1.16929 -0.94738,-2.11667 -2.11667,-2.11667 z m 0,3.82366 c -0.94312,0 -1.70699,-0.76388 -1.70699,-1.70699 0,-0.94311 0.76387,-1.70699 1.70699,-1.70699 0.94312,0 1.70699,0.76388 1.70699,1.70699 0,0.94311 -0.76387,1.70699 -1.70699,1.70699 z"
     id="path1015-1-0-3"
     style="fill:#ff7f00;fill-opacity:1;stroke-width:0.00853495" />
  <path
     fill="currentColor"
     d="m 150.81248,50.799997 c -1.16929,0 -2.11667,0.94738 -2.11667,2.11667 0,1.16928 0.94738,2.11667 2.11667,2.11667 1.16929,0 2.11667,-0.94739 2.11667,-2.11667 0,-1.16929 -0.94738,-2.11667 -2.11667,-2.11667 z m 0,3.82366 c -0.94311,0 -1.70698,-0.76388 -1.70698,-1.70699 0,-0.94311 0.76387,-1.70699 1.70698,-1.70699 0.94311,0 1.70699,0.76388 1.70699,1.70699 0,0.94311 -0.76388,1.70699 -1.70699,1.70699 z"
     id="path1015-9-0"
     style="fill:#ff7f00;fill-opacity:1;stroke-width:0.00853495" />
  <path
     fill="currentColor"
     d="m 121.17916,52.916667 c 0,1.16901 -0.94766,2.11667 -2.11667,2.11667 -1.169,0 -2.11667,-0.94766 -2.11667,-2.11667 0,-1.16901 0.94767,-2.11667 2.11667,-2.11667 1.16901,0 2.11667,0.94766 2.11667,2.11667 z m -2.3615,1.12076 1.57043,-1.57043 c 0.0533,-0.0533 0.0533,-0.13979 0,-0.19312 l -0.19312,-0.19312 c -0.0533,-0.0533 -0.1398,-0.0533 -0.19313,0 l -1.28075,1.28074 -0.59795,-0.59796 c -0.0533,-0.0533 -0.13979,-0.0533 -0.19313,0 l -0.19312,0.19312 c -0.0533,0.0533 -0.0533,0.1398 0,0.19313 l 0.88764,0.88763 c 0.0533,0.0533 0.13979,0.0533 0.19313,1e-5 z"
     id="path836-39"
     style="fill:#ff7f00;fill-opacity:1;stroke-width:0.00853495" />
  <path
     fill="currentColor"
     d="m 47.095838,52.916667 c 0,1.16901 -0.94766,2.11667 -2.116669,2.11667 -1.169006,0 -2.116666,-0.94766 -2.116666,-2.11667 0,-1.16901 0.94766,-2.11667 2.116666,-2.11667 1.169009,0 2.116669,0.94766 2.116669,2.11667 z m -2.361502,1.12076 1.570432,-1.57043 c 0.0533,-0.0533 0.0533,-0.13979 0,-0.19312 l -0.193123,-0.19312 c -0.05332,-0.0533 -0.139793,-0.0533 -0.193128,0 l -1.280746,1.28074 -0.597949,-0.59796 c -0.05332,-0.0533 -0.139794,-0.0533 -0.193129,0 l -0.19312,0.19312 c -0.05333,0.0533 -0.05333,0.1398 0,0.19313 l 0.887634,0.88763 c 0.05333,0.0533 0.139794,0.0533 0.193129,1e-5 z"
     id="path836-6-2"
     style="fill:#ff7f00;fill-opacity:1;stroke-width:0.00853495" />
  <path
     fill="currentColor"
     d="m 105.30415,52.916667 c 0,1.16901 -0.94766,2.11667 -2.11666,2.11667 -1.16899,0 -2.11666,-0.94766 -2.11666,-2.11667 0,-1.16901 0.94767,-2.11667 2.11666,-2.11667 1.16901,0 2.11666,0.94766 2.11666,2.11667 z m -2.3615,1.12076 1.57043,-1.57043 c 0.0533,-0.0533 0.0533,-0.13979 0,-0.19312 l -0.19312,-0.19312 c -0.0533,-0.0533 -0.13979,-0.0533 -0.19312,0 l -1.28075,1.28074 -0.59795,-0.59796 c -0.0533,-0.0533 -0.13979,-0.0533 -0.19313,0 l -0.19311,0.19312 c -0.0533,0.0533 -0.0533,0.1398 0,0.19313 l 0.88764,0.88763 c 0.0533,0.0533 0.1398,0.0533 0.19311,1e-5 z"
     id="path836-4-4"
     style="fill:#ff7f00;fill-opacity:1;stroke-width:0.00853495" />
  <path
     fill="currentColor"
     d="m 108.47915,50.799997 c -1.16927,0 -2.11665,0.94738 -2.11665,2.11667 0,1.16928 0.94738,2.11667 2.11665,2.11667 1.16929,0 2.11667,-0.94739 2.11667,-2.11667 0,-1.16929 -0.94738,-2.11667 -2.11667,-2.11667 z m 0,3.82366 c -0.9431,0 -1.70698,-0.76388 -1.70698,-1.70699 0,-0.94311 0.76388,-1.70699 1.70698,-1.70699 0.94312,0 1.70699,0.76388 1.70699,1.70699 0,0.94311 -0.76386,1.70699 -1.70699,1.70699 z"
     id="path1015-1-7"
     style="fill:#ff7f00;fill-opacity:1;stroke-width:0.00853495" />
  <path
     fill="currentColor"
     d="m 97.895823,50.799997 c -1.16927,0 -2.11665,0.94738 -2.11665,2.11667 0,1.16928 0.94738,2.11667 2.11665,2.11667 1.16929,0 2.116657,-0.94739 2.116657,-2.11667 0,-1.16929 -0.947367,-2.11667 -2.116657,-2.11667 z m 0,3.82366 c -0.94311,0 -1.70699,-0.76388 -1.70699,-1.70699 0,-0.94311 0.76388,-1.70699 1.70699,-1.70699 0.94311,0 1.70699,0.76388 1.70699,1.70699 0,0.94311 -0.76386,1.70699 -1.70699,1.70699 z"
     id="path1015-1-7-1"
     style="fill:#ff7f00;fill-opacity:1;stroke-width:0.00853495" />
  <path
     fill="currentColor"
     d="m 113.77083,50.799997 c -1.169,0 -2.11667,0.94767 -2.11667,2.11667 0,1.16902 0.94767,2.11667 2.11667,2.11667 1.169,0 2.11666,-0.94765 2.11666,-2.11667 0,-1.169 -0.94766,-2.11667 -2.11666,-2.11667 z m 0.6828,2.11667 c 0,0.3765 -0.3063,0.6828 -0.6828,0.6828 -0.3765,0 -0.68279,-0.3063 -0.68279,-0.6828 0,-0.37649 0.30629,-0.68279 0.68279,-0.68279 0.37649,0 0.6828,0.3063 0.6828,0.68279 z"
     id="path1114-4-3"
     style="fill:#ff7f00;fill-opacity:1;stroke-width:0.0085349" />
  <path
     fill="currentColor"
     d="m 140.22915,50.799997 c -1.169,0 -2.11667,0.94767 -2.11667,2.11667 0,1.16902 0.94767,2.11667 2.11667,2.11667 1.16901,0 2.11666,-0.94765 2.11666,-2.11667 0,-1.169 -0.94766,-2.11667 -2.11666,-2.11667 z m 0.6828,2.11667 c 0,0.3765 -0.3063,0.6828 -0.6828,0.6828 -0.3765,0 -0.68279,-0.3063 -0.68279,-0.6828 0,-0.37649 0.30629,-0.68279 0.68279,-0.68279 0.37649,0 0.6828,0.3063 0.6828,0.68279 z"
     id="path1114-4-3-2"
     style="fill:#ff7f00;fill-opacity:1;stroke-width:0.0085349" />
  <path
     fill="currentColor"
     d="m 161.39582,50.799997 c -1.16901,0 -2.11667,0.94767 -2.11667,2.11667 0,1.16902 0.94766,2.11667 2.11667,2.11667 1.169,0 2.11665,-0.94765 2.11665,-2.11667 0,-1.169 -0.94766,-2.11667 -2.11665,-2.11667 z m 0.68279,2.11667 c 0,0.3765 -0.3063,0.6828 -0.68279,0.6828 -0.37651,0 -0.6828,-0.3063 -0.6828,-0.6828 0,-0.37649 0.30629,-0.68279 0.6828,-0.68279 0.37648,0 0.68279,0.3063 0.68279,0.68279 z"
     id="path1114-4-3-2-2"
     style="fill:#ff7f00;fill-opacity:1;stroke-width:0.0085349" />
  <path
     fill="currentColor"
     d="m 166.68749,50.799997 c -1.16901,0 -2.11667,0.94767 -2.11667,2.11667 0,1.16902 0.94766,2.11667 2.11667,2.11667 1.169,0 2.11666,-0.94765 2.11666,-2.11667 0,-1.169 -0.94767,-2.11667 -2.11666,-2.11667 z m 0.68279,2.11667 c 0,0.3765 -0.30629,0.6828 -0.68279,0.6828 -0.3765,0 -0.6828,-0.3063 -0.6828,-0.6828 0,-0.37649 0.30629,-0.68279 0.6828,-0.68279 0.37649,0 0.68279,0.3063 0.68279,0.68279 z"
     id="path1114-4-3-2-4"
     style="fill:#ff7f00;fill-opacity:1;stroke-width:0.0085349" />
  <path
     fill="currentColor"
     d="m 182.56249,50.799997 c -1.16929,0 -2.11667,0.947381 -2.11667,2.11667 0,1.16928 0.94738,2.11667 2.11667,2.11667 1.16929,0 2.11667,-0.94739 2.11667,-2.11667 0,-1.169289 -0.94738,-2.11667 -2.11667,-2.11667 z m 0,3.82366 c -0.94312,0 -1.70699,-0.76388 -1.70699,-1.70699 0,-0.943109 0.76387,-1.706989 1.70699,-1.706989 0.94312,0 1.70699,0.76388 1.70699,1.706989 0,0.94311 -0.76387,1.70699 -1.70699,1.70699 z"
     id="path1015-1-0-32"
     style="fill:#ff7f00;fill-opacity:1;stroke-width:0.00853495" />
  <path
     fill="currentColor"
     d="m 177.27082,50.799997 c -1.16929,0 -2.11667,0.947381 -2.11667,2.11667 0,1.16928 0.94738,2.11667 2.11667,2.11667 1.16929,0 2.11667,-0.94739 2.11667,-2.11667 0,-1.169289 -0.94738,-2.11667 -2.11667,-2.11667 z m 0,3.82366 c -0.94311,0 -1.70698,-0.76388 -1.70698,-1.70699 0,-0.943109 0.76387,-1.706989 1.70698,-1.706989 0.94311,0 1.70699,0.76388 1.70699,1.706989 0,0.94311 -0.76388,1.70699 -1.70699,1.70699 z"
     id="path1015-9-0-0"
     style="fill:#ff7f00;fill-opacity:1;stroke-width:0.00853495" />
  <path
     fill="currentColor"
     d="m 193.14583,50.799997 c -1.16901,0 -2.11667,0.947671 -2.11667,2.11667 0,1.169021 0.94766,2.11667 2.11667,2.11667 1.169,0 2.11666,-0.94765 2.11666,-2.11667 0,-1.168999 -0.94767,-2.11667 -2.11666,-2.11667 z m 0.68279,2.11667 c 0,0.3765 -0.30629,0.6828 -0.68279,0.6828 -0.3765,0 -0.6828,-0.3063 -0.6828,-0.6828 0,-0.376489 0.30629,-0.682789 0.6828,-0.682789 0.37649,0 0.68279,0.3063 0.68279,0.682789 z"
     id="path1114-4-3-2-4-4"
     style="fill:#ff7f00;fill-opacity:1;stroke-width:0.0085349" />
</svg>
